<?xml version="1.0" encoding="UTF-8"?><svg xmlns="http://www.w3.org/2000/svg" xmlns:xlink="http://www.w3.org/1999/xlink" width="375pt" zoomAndPan="magnify" viewBox="0 0 375 374.999991" height="374.999991pt" preserveAspectRatio="xMidYMid meet" version="1.2"><defs><g/><clipPath xml:id="clip1" id="clip1"><path d="M 77 51.425781 L 326 51.425781 L 326 281.738281 L 77 281.738281 Z M 77 51.425781 "/></clipPath><clipPath xml:id="clip2" id="clip2"><path d="M 324.351562 216.511719 C 323.75 213.550781 323.113281 210.410156 321.800781 207.664062 C 320.699219 205.363281 318.984375 203.351562 317.378906 201.386719 C 313.769531 196.980469 309.996094 192.128906 313.175781 186.34375 C 313.394531 185.949219 312.910156 185.648438 312.589844 185.898438 C 308.152344 189.324219 308.160156 193.664062 309.800781 198.699219 C 310.957031 202.238281 312.101562 205.878906 309.53125 209.121094 C 307.640625 211.503906 304.367188 212.382812 301.449219 212.375 C 293.878906 212.339844 290.921875 204.179688 291.363281 196.9375 C 291.914062 195.550781 292.550781 194.195312 293.28125 192.875 C 298.941406 182.636719 308.058594 167.15625 312.863281 142.367188 C 313.433594 139.441406 313.410156 136.464844 313.203125 133.488281 C 313.683594 129.164062 312.671875 124.796875 310.6875 120.714844 C 309.367188 118 307.492188 115.726562 305.464844 113.53125 C 303.355469 111.242188 300.265625 108.304688 300.441406 104.925781 C 300.445312 104.804688 300.335938 104.703125 300.21875 104.703125 C 298.488281 104.6875 298.359375 108.117188 298.539062 109.1875 C 299.15625 112.902344 303.644531 117.5625 299.222656 120.601562 C 295.832031 122.933594 292.628906 119.644531 290.601562 117.230469 L 290.492188 117.085938 C 284.734375 105.304688 276.164062 94.25 264.066406 85.4375 C 264.066406 85.4375 294.765625 135.433594 276.527344 149.683594 C 272.386719 150.597656 267.621094 147.699219 264.410156 145.179688 C 255.632812 138.304688 260.839844 126.765625 260.402344 117.511719 C 260.148438 112.214844 259.097656 106.933594 257.019531 102.046875 C 254.949219 97.191406 251.292969 93.574219 247 90.617188 C 242.417969 87.460938 237.273438 85.207031 232.4375 82.46875 C 227.808594 79.84375 224.167969 76.421875 221.242188 71.972656 C 217.308594 66.003906 214.832031 57.910156 219.167969 51.503906 C 219.375 51.195312 212.058594 52.664062 208.972656 61.921875 C 205.902344 71.183594 208.652344 78.480469 206.472656 81.117188 C 203.839844 84.289062 200.230469 85.8125 196.136719 85.835938 C 194.070312 85.847656 192.121094 85.351562 190.101562 85.0625 C 189.722656 85.007812 177.609375 80.996094 171.753906 80.769531 C 171.753906 80.769531 191.761719 86.605469 183 99.453125 C 174.238281 112.296875 165.035156 103.25 145.753906 105.582031 C 126.472656 107.917969 99.886719 112.589844 77.683594 140.761719 C 77.683594 140.761719 98.722656 121.640625 118.585938 123.972656 C 138.449219 126.308594 114.378906 140.761719 114.378906 140.761719 C 114.378906 140.761719 181.082031 114.171875 226.078125 149.433594 C 271.074219 184.699219 275.480469 276.316406 287.472656 280.210938 C 317.503906 289.960938 319.625 238.539062 321.765625 235.710938 C 326.125 229.96875 325.71875 223.261719 324.351562 216.511719 Z M 324.351562 216.511719 "/></clipPath><clipPath xml:id="clip3" id="clip3"><path d="M 324.351562 216.511719 C 323.75 213.550781 323.113281 210.410156 321.800781 207.664062 C 320.699219 205.363281 318.984375 203.351562 317.378906 201.386719 C 313.769531 196.980469 309.996094 192.128906 313.175781 186.34375 C 313.394531 185.949219 312.910156 185.648438 312.589844 185.898438 C 308.152344 189.324219 308.160156 193.664062 309.800781 198.699219 C 310.957031 202.238281 312.101562 205.878906 309.53125 209.121094 C 307.640625 211.503906 304.367188 212.382812 301.449219 212.375 C 293.878906 212.339844 290.921875 204.179688 291.363281 196.9375 C 291.914062 195.550781 292.550781 194.195312 293.28125 192.875 C 298.941406 182.636719 308.058594 167.15625 312.863281 142.367188 C 313.433594 139.441406 313.410156 136.464844 313.203125 133.488281 C 313.683594 129.164062 312.671875 124.796875 310.6875 120.714844 C 309.367188 118 307.492188 115.726562 305.464844 113.53125 C 303.355469 111.242188 300.265625 108.304688 300.441406 104.925781 C 300.445312 104.804688 300.335938 104.703125 300.21875 104.703125 C 298.488281 104.6875 298.359375 108.117188 298.539062 109.1875 C 299.15625 112.902344 303.644531 117.5625 299.222656 120.601562 C 295.832031 122.933594 292.628906 119.644531 290.601562 117.230469 L 290.492188 117.085938 C 284.734375 105.304688 276.164062 94.25 264.066406 85.4375 C 264.066406 85.4375 294.765625 135.433594 276.527344 149.683594 C 272.386719 150.597656 267.621094 147.699219 264.410156 145.179688 C 255.632812 138.304688 260.839844 126.765625 260.402344 117.511719 C 260.148438 112.214844 259.097656 106.933594 257.019531 102.046875 C 254.949219 97.191406 251.292969 93.574219 247 90.617188 C 242.417969 87.460938 237.273438 85.207031 232.4375 82.46875 C 227.808594 79.84375 224.167969 76.421875 221.242188 71.972656 C 217.308594 66.003906 214.832031 57.910156 219.167969 51.503906 C 219.375 51.195312 212.058594 52.664062 208.972656 61.921875 C 205.902344 71.183594 208.652344 78.480469 206.472656 81.117188 C 203.839844 84.289062 200.230469 85.8125 196.136719 85.835938 C 194.070312 85.847656 192.121094 85.351562 190.101562 85.0625 C 189.722656 85.007812 177.609375 80.996094 171.753906 80.769531 C 171.753906 80.769531 191.761719 86.605469 183 99.453125 C 174.238281 112.296875 165.035156 103.25 145.753906 105.582031 C 126.472656 107.917969 99.886719 112.589844 77.683594 140.761719 C 77.683594 140.761719 98.722656 121.640625 118.585938 123.972656 C 138.449219 126.308594 114.378906 140.761719 114.378906 140.761719 C 114.378906 140.761719 181.082031 114.171875 226.078125 149.433594 C 271.074219 184.699219 275.480469 276.316406 287.472656 280.210938 C 317.503906 289.960938 319.625 238.539062 321.765625 235.710938 C 326.125 229.96875 325.71875 223.261719 324.351562 216.511719 "/></clipPath><clipPath xml:id="clip4" id="clip4"><path d="M 204.984375 414.0625 L 445.546875 167.617188 L 198.824219 -72.898438 L -41.738281 173.542969 Z M 204.984375 414.0625 "/></clipPath><linearGradient x1="-0.104552" gradientTransform="matrix(-178.786446,-174.289046,174.403406,-178.669216,320.100517,250.538204)" xmlns:xlink="http://www.w3.org/1999/xlink" y1="0" x2="1.25181" gradientUnits="userSpaceOnUse" y2="0" xlink:type="simple" xlink:actuate="onLoad" id="linear0" xlink:show="other" xml:id="linear0"><stop style="stop-color:rgb(50.999451%,66.699219%,100%);stop-opacity:1;" offset="0"/><stop style="stop-color:rgb(50.999451%,66.699219%,100%);stop-opacity:1;" offset="0.0625"/><stop style="stop-color:rgb(50.999451%,66.699219%,100%);stop-opacity:1;" offset="0.078125"/><stop style="stop-color:rgb(60.8078%,43.969727%,63.917542%);stop-opacity:1;" offset="0.0820312"/><stop style="stop-color:rgb(70.617676%,21.240234%,27.836609%);stop-opacity:1;" offset="0.0859375"/><stop style="stop-color:rgb(72.358704%,17.669678%,22.167969%);stop-opacity:1;" offset="0.0898438"/><stop style="stop-color:rgb(74.099731%,14.099121%,16.499329%);stop-opacity:1;" offset="0.09375"/><stop style="stop-color:rgb(74.290466%,14.099121%,16.499329%);stop-opacity:1;" offset="0.101563"/><stop style="stop-color:rgb(74.664307%,14.099121%,16.499329%);stop-opacity:1;" offset="0.109375"/><stop style="stop-color:rgb(74.873352%,14.257812%,16.499329%);stop-opacity:1;" offset="0.117188"/><stop style="stop-color:rgb(75.099182%,14.457703%,16.499329%);stop-opacity:1;" offset="0.121094"/><stop style="stop-color:rgb(75.299072%,14.498901%,16.499329%);stop-opacity:1;" offset="0.125"/><stop style="stop-color:rgb(75.498962%,14.498901%,16.499329%);stop-opacity:1;" offset="0.128906"/><stop style="stop-color:rgb(75.698853%,14.498901%,16.499329%);stop-opacity:1;" offset="0.132812"/><stop style="stop-color:rgb(75.898743%,14.498901%,16.499329%);stop-opacity:1;" offset="0.136719"/><stop style="stop-color:rgb(76.098633%,14.498901%,16.499329%);stop-opacity:1;" offset="0.140625"/><stop style="stop-color:rgb(76.298523%,14.498901%,16.499329%);stop-opacity:1;" offset="0.144531"/><stop style="stop-color:rgb(76.499939%,14.498901%,16.499329%);stop-opacity:1;" offset="0.148437"/><stop style="stop-color:rgb(76.628113%,14.627075%,16.371155%);stop-opacity:1;" offset="0.15625"/><stop style="stop-color:rgb(76.939392%,14.826965%,16.171265%);stop-opacity:1;" offset="0.164062"/><stop style="stop-color:rgb(77.282715%,14.898682%,16.099548%);stop-opacity:1;" offset="0.171875"/><stop style="stop-color:rgb(77.650452%,14.898682%,16.099548%);stop-opacity:1;" offset="0.175781"/><stop style="stop-color:rgb(77.859497%,14.898682%,16.099548%);stop-opacity:1;" offset="0.179688"/><stop style="stop-color:rgb(77.929688%,14.898682%,16.099548%);stop-opacity:1;" offset="0.1875"/><stop style="stop-color:rgb(78.199768%,14.898682%,16.099548%);stop-opacity:1;" offset="0.191406"/><stop style="stop-color:rgb(78.399658%,14.898682%,16.099548%);stop-opacity:1;" offset="0.195313"/><stop style="stop-color:rgb(78.599548%,15.098572%,16.099548%);stop-opacity:1;" offset="0.199219"/><stop style="stop-color:rgb(78.799438%,15.299988%,16.099548%);stop-opacity:1;" offset="0.203125"/><stop style="stop-color:rgb(78.865051%,15.299988%,16.099548%);stop-opacity:1;" offset="0.210938"/><stop style="stop-color:rgb(79.164124%,15.299988%,16.099548%);stop-opacity:1;" offset="0.214844"/><stop style="stop-color:rgb(79.399109%,15.299988%,16.099548%);stop-opacity:1;" offset="0.21875"/><stop style="stop-color:rgb(79.582214%,15.299988%,16.099548%);stop-opacity:1;" offset="0.226562"/><stop style="stop-color:rgb(79.882812%,15.299988%,16.099548%);stop-opacity:1;" offset="0.234375"/><stop style="stop-color:rgb(80.198669%,15.350342%,16.099548%);stop-opacity:1;" offset="0.238281"/><stop style="stop-color:rgb(80.39856%,15.402222%,16.099548%);stop-opacity:1;" offset="0.242188"/><stop style="stop-color:rgb(80.59845%,15.550232%,16.099548%);stop-opacity:1;" offset="0.246094"/><stop style="stop-color:rgb(80.799866%,15.699768%,16.099548%);stop-opacity:1;" offset="0.25"/><stop style="stop-color:rgb(80.82428%,15.699768%,16.099548%);stop-opacity:1;" offset="0.257813"/><stop style="stop-color:rgb(81.02417%,15.699768%,16.099548%);stop-opacity:1;" offset="0.265625"/><stop style="stop-color:rgb(81.399536%,15.699768%,16.099548%);stop-opacity:1;" offset="0.269531"/><stop style="stop-color:rgb(81.599426%,15.699768%,16.099548%);stop-opacity:1;" offset="0.273438"/><stop style="stop-color:rgb(81.799316%,15.699768%,16.099548%);stop-opacity:1;" offset="0.277344"/><stop style="stop-color:rgb(81.999207%,15.699768%,16.099548%);stop-opacity:1;" offset="0.28125"/><stop style="stop-color:rgb(82.003784%,15.899658%,16.099548%);stop-opacity:1;" offset="0.285156"/><stop style="stop-color:rgb(82.009888%,16.099548%,16.099548%);stop-opacity:1;" offset="0.289063"/><stop style="stop-color:rgb(82.203674%,16.099548%,16.099548%);stop-opacity:1;" offset="0.296875"/><stop style="stop-color:rgb(82.472229%,16.099548%,16.000366%);stop-opacity:1;" offset="0.304688"/><stop style="stop-color:rgb(82.725525%,16.099548%,15.800476%);stop-opacity:1;" offset="0.3125"/><stop style="stop-color:rgb(83.088684%,16.099548%,15.699768%);stop-opacity:1;" offset="0.328125"/><stop style="stop-color:rgb(83.465576%,16.178894%,15.699768%);stop-opacity:1;" offset="0.335938"/><stop style="stop-color:rgb(83.778381%,16.378784%,15.699768%);stop-opacity:1;" offset="0.34375"/><stop style="stop-color:rgb(83.987427%,16.499329%,15.699768%);stop-opacity:1;" offset="0.351562"/><stop style="stop-color:rgb(84.268188%,16.499329%,15.699768%);stop-opacity:1;" offset="0.359375"/><stop style="stop-color:rgb(84.651184%,16.499329%,15.699768%);stop-opacity:1;" offset="0.367188"/><stop style="stop-color:rgb(84.971619%,16.499329%,15.699768%);stop-opacity:1;" offset="0.375"/><stop style="stop-color:rgb(85.163879%,16.563416%,15.699768%);stop-opacity:1;" offset="0.382812"/><stop style="stop-color:rgb(85.437012%,16.763306%,15.699768%);stop-opacity:1;" offset="0.386719"/><stop style="stop-color:rgb(85.646057%,16.899109%,15.699768%);stop-opacity:1;" offset="0.390625"/><stop style="stop-color:rgb(85.829163%,16.899109%,15.699768%);stop-opacity:1;" offset="0.40625"/><stop style="stop-color:rgb(86.196899%,16.899109%,15.699768%);stop-opacity:1;" offset="0.421875"/><stop style="stop-color:rgb(86.578369%,16.93573%,15.699768%);stop-opacity:1;" offset="0.425781"/><stop style="stop-color:rgb(86.775208%,16.973877%,15.699768%);stop-opacity:1;" offset="0.429688"/><stop style="stop-color:rgb(86.936951%,17.13562%,15.699768%);stop-opacity:1;" offset="0.4375"/><stop style="stop-color:rgb(87.139893%,17.298889%,15.699768%);stop-opacity:1;" offset="0.445312"/><stop style="stop-color:rgb(87.365723%,17.298889%,15.699768%);stop-opacity:1;" offset="0.453125"/><stop style="stop-color:rgb(87.695312%,17.298889%,15.678406%);stop-opacity:1;" offset="0.46875"/><stop style="stop-color:rgb(88.018799%,17.324829%,15.478516%);stop-opacity:1;" offset="0.476562"/><stop style="stop-color:rgb(88.224792%,17.474365%,15.299988%);stop-opacity:1;" offset="0.484375"/><stop style="stop-color:rgb(88.435364%,17.599487%,15.299988%);stop-opacity:1;" offset="0.5"/><stop style="stop-color:rgb(88.809204%,17.599487%,15.299988%);stop-opacity:1;" offset="0.507812"/><stop style="stop-color:rgb(89.01825%,17.599487%,15.299988%);stop-opacity:1;" offset="0.515625"/><stop style="stop-color:rgb(89.221191%,17.599487%,15.299988%);stop-opacity:1;" offset="0.53125"/><stop style="stop-color:rgb(89.598083%,17.599487%,15.299988%);stop-opacity:1;" offset="0.539062"/><stop style="stop-color:rgb(89.794922%,17.78717%,15.299988%);stop-opacity:1;" offset="0.546875"/><stop style="stop-color:rgb(89.978027%,17.987061%,15.299988%);stop-opacity:1;" offset="0.554688"/><stop style="stop-color:rgb(90.177917%,17.999268%,15.299988%);stop-opacity:1;" offset="0.5625"/><stop style="stop-color:rgb(90.386963%,17.999268%,15.299988%);stop-opacity:1;" offset="0.570312"/><stop style="stop-color:rgb(90.586853%,17.999268%,15.299988%);stop-opacity:1;" offset="0.578125"/><stop style="stop-color:rgb(90.771484%,17.999268%,15.299988%);stop-opacity:1;" offset="0.585937"/><stop style="stop-color:rgb(90.971375%,17.999268%,15.299988%);stop-opacity:1;" offset="0.59375"/><stop style="stop-color:rgb(91.085815%,18.084717%,15.299988%);stop-opacity:1;" offset="0.609375"/><stop style="stop-color:rgb(91.363525%,18.284607%,15.299988%);stop-opacity:1;" offset="0.625"/><stop style="stop-color:rgb(91.677856%,18.399048%,15.299988%);stop-opacity:1;" offset="0.640625"/><stop style="stop-color:rgb(91.874695%,18.399048%,15.299988%);stop-opacity:1;" offset="0.65625"/><stop style="stop-color:rgb(92.124939%,18.399048%,15.299988%);stop-opacity:1;" offset="0.671875"/><stop style="stop-color:rgb(92.399597%,18.461609%,15.299988%);stop-opacity:1;" offset="0.6875"/><stop style="stop-color:rgb(92.56134%,18.661499%,15.299988%);stop-opacity:1;" offset="0.703125"/><stop style="stop-color:rgb(92.76123%,18.798828%,15.240479%);stop-opacity:1;" offset="0.71875"/><stop style="stop-color:rgb(92.958069%,18.798828%,15.039062%);stop-opacity:1;" offset="0.734375"/><stop style="stop-color:rgb(93.159485%,18.798828%,14.898682%);stop-opacity:1;" offset="0.75"/><stop style="stop-color:rgb(93.322754%,18.798828%,14.898682%);stop-opacity:1;" offset="0.78125"/><stop style="stop-color:rgb(93.522644%,18.798828%,14.898682%);stop-opacity:1;" offset="0.8125"/><stop style="stop-color:rgb(93.699646%,18.798828%,14.898682%);stop-opacity:1;" offset="0.875"/><stop style="stop-color:rgb(93.699646%,18.798828%,14.898682%);stop-opacity:1;" offset="1"/></linearGradient><clipPath xml:id="clip5" id="clip5"><path d="M 69 286 L 91 286 L 91 298.925781 L 69 298.925781 Z M 69 286 "/></clipPath><clipPath xml:id="clip6" id="clip6"><path d="M 50 117 L 293 117 L 293 298.925781 L 50 298.925781 Z M 50 117 "/></clipPath></defs><g xml:id="surface1" id="surface1"><g clip-rule="nonzero" clip-path="url(#clip1)"><g clip-rule="nonzero" clip-path="url(#clip2)"><g clip-rule="nonzero" clip-path="url(#clip3)"><g clip-rule="nonzero" clip-path="url(#clip4)"><path style=" stroke:none;fill-rule:nonzero;fill:url(#linear0);" d="M 204.988281 405.839844 L 441.320312 163.726562 L 198.820312 -72.675781 L -37.511719 169.441406 Z M 204.988281 405.839844 "/></g></g></g></g><path style=" stroke:none;fill-rule:nonzero;fill:rgb(50.979614%,66.668701%,100%);fill-opacity:1;" d="M 267.300781 269.644531 C 259.980469 268.894531 252.671875 267.875 245.425781 266.585938 L 266.082031 273.5625 L 267.300781 269.644531 "/><path style=" stroke:none;fill-rule:nonzero;fill:rgb(50.979614%,66.668701%,100%);fill-opacity:1;" d="M 270.398438 221.15625 C 263.476562 223.683594 256.453125 225.949219 249.359375 227.941406 C 256.726562 228.171875 264.082031 228.585938 271.414062 229.320312 C 271.136719 226.585938 270.796875 223.871094 270.398438 221.15625 "/><path style=" stroke:none;fill-rule:nonzero;fill:rgb(50.979614%,66.668701%,100%);fill-opacity:1;" d="M 252.042969 176.191406 C 246.90625 181.476562 241.546875 186.558594 236.015625 191.4375 C 242.738281 188.398438 249.570312 185.621094 256.503906 183.105469 C 255.15625 180.742188 253.679688 178.363281 252.042969 176.191406 "/><path style=" stroke:none;fill-rule:nonzero;fill:rgb(50.979614%,66.668701%,100%);fill-opacity:1;" d="M 215.925781 143.660156 C 213.609375 150.65625 211.027344 157.570312 208.175781 164.359375 C 212.898438 158.691406 217.863281 153.238281 222.980469 147.917969 C 220.757812 146.335938 218.3125 144.980469 215.925781 143.660156 "/><path style=" stroke:none;fill-rule:nonzero;fill:rgb(50.979614%,66.668701%,100%);fill-opacity:1;" d="M 169.277344 130.078125 C 170.183594 137.394531 170.890625 144.726562 171.273438 152.09375 C 173.0625 144.9375 175.179688 137.875 177.476562 130.867188 C 174.765625 130.476562 172.015625 130.214844 169.277344 130.078125 "/><path style=" stroke:none;fill-rule:nonzero;fill:rgb(50.979614%,66.668701%,100%);fill-opacity:1;" d="M 121.347656 138.167969 C 125.378906 144.328125 129.195312 150.644531 132.75 157.097656 C 131.242188 149.878906 130.007812 142.597656 129.050781 135.285156 C 126.460938 136.203125 123.890625 137.125 121.347656 138.167969 "/><path style=" stroke:none;fill-rule:nonzero;fill:rgb(50.979614%,66.668701%,100%);fill-opacity:1;" d="M 81.683594 166.234375 C 87.996094 170.035156 94.179688 174.078125 100.191406 178.347656 C 95.699219 172.511719 91.441406 166.492188 87.414062 160.320312 C 85.4375 162.238281 83.558594 164.21875 81.683594 166.234375 "/><path style=" stroke:none;fill-rule:nonzero;fill:rgb(50.979614%,66.668701%,100%);fill-opacity:1;" d="M 58.261719 208.792969 C 61.945312 209.136719 65.621094 209.542969 69.285156 210.027344 C 71.796875 210.347656 74.296875 210.710938 76.796875 211.101562 C 76.988281 211.128906 80.195312 211.550781 80.195312 211.648438 C 73.605469 208.347656 67.144531 204.78125 60.824219 200.988281 C 59.882812 203.566406 59.066406 206.167969 58.261719 208.792969 "/><path style=" stroke:none;fill-rule:nonzero;fill:rgb(50.979614%,66.668701%,100%);fill-opacity:1;" d="M 55.660156 257.3125 C 62.558594 254.710938 69.554688 252.425781 76.613281 250.320312 C 69.25 250.210938 61.886719 249.824219 54.550781 249.152344 C 54.699219 250.519531 54.851562 251.882812 55.003906 253.246094 C 55.042969 253.519531 55.53125 257.3125 55.660156 257.3125 "/><g clip-rule="nonzero" clip-path="url(#clip5)"><path style=" stroke:none;fill-rule:nonzero;fill:rgb(50.979614%,66.668701%,100%);fill-opacity:1;" d="M 72.085938 298.71875 L 90.285156 286.707031 C 83.609375 289.804688 76.804688 292.644531 69.914062 295.222656 L 72.085938 298.71875 "/></g><g clip-rule="nonzero" clip-path="url(#clip6)"><path style=" stroke:none;fill-rule:nonzero;fill:rgb(50.979614%,66.668701%,100%);fill-opacity:1;" d="M 245.617188 267.234375 C 246.894531 263.746094 248.230469 260.265625 249.175781 256.664062 C 250.398438 252.019531 251.34375 247.332031 251.847656 242.550781 C 252.972656 231.804688 252.148438 220.789062 249.320312 210.359375 C 243.777344 189.929688 231.488281 171.914062 214.410156 159.371094 C 208.003906 154.664062 201.066406 151.078125 193.792969 147.917969 C 193.894531 147.941406 193.386719 147.773438 193.984375 147.960938 C 188.261719 145.859375 182.582031 144.0625 176.59375 142.792969 C 165.707031 140.480469 154.265625 140.308594 143.269531 141.933594 C 122.707031 144.960938 103.363281 154.542969 88.375 168.921875 C 82.925781 174.15625 78.066406 180 73.882812 186.289062 C 69.917969 192.257812 66.78125 198.644531 63.992188 205.234375 C 63.964844 205.300781 64.042969 205.054688 63.988281 205.21875 C 62.65625 208.90625 61.417969 212.566406 60.304688 216.316406 C 59.066406 220.46875 58.246094 224.820312 57.628906 229.105469 C 56.089844 239.714844 56.253906 250.511719 57.953125 261.085938 C 59.121094 268.179688 60.945312 275.175781 63.496094 281.898438 C 65.613281 287.863281 68.621094 293.46875 71.679688 298.992188 C 66.753906 291.867188 62.320312 284.527344 58.972656 276.523438 C 55.09375 267.273438 52.457031 257.488281 51.152344 247.546875 C 48.808594 229.503906 51.109375 211.035156 57.347656 193.976562 C 64.554688 174.269531 77.347656 156.761719 93.722656 143.65625 C 109.949219 130.667969 129.597656 122.132812 150.136719 119 C 161.347656 117.292969 172.871094 117.128906 184.109375 118.664062 C 189.871094 119.453125 195.480469 120.699219 201.109375 122.140625 C 209.3125 124.25 217.378906 127.59375 224.882812 131.507812 C 234.148438 136.339844 242.796875 142.355469 250.574219 149.332031 C 266.371094 163.496094 278.347656 181.703125 285.386719 201.695312 C 292.402344 221.632812 294.308594 243.351562 290.976562 264.210938 C 290.113281 269.613281 288.835938 274.910156 287.472656 280.210938 L 245.617188 267.234375 "/></g><path style=" stroke:none;fill-rule:nonzero;fill:rgb(50.979614%,66.668701%,100%);fill-opacity:1;" d="M 245.425781 266.585938 L 146.09375 239.953125 C 142.578125 239.011719 140.496094 235.402344 141.4375 231.890625 C 142.382812 228.378906 145.988281 226.296875 149.507812 227.238281 C 149.765625 227.308594 150.054688 227.40625 150.300781 227.507812 L 245.425781 266.585938 "/><path style=" stroke:none;fill-rule:nonzero;fill:rgb(50.979614%,66.668701%,100%);fill-opacity:1;" d="M 245.425781 266.585938 C 245.425781 266.585938 243.8125 266.050781 240.984375 265.113281 C 238.152344 264.199219 234.105469 262.886719 229.246094 261.320312 C 226.816406 260.539062 224.183594 259.695312 221.402344 258.792969 C 218.617188 257.921875 215.675781 256.992188 212.632812 256.035156 C 206.535156 254.144531 200.039062 252.128906 193.535156 250.113281 C 187.027344 248.132812 180.515625 246.152344 174.410156 244.292969 C 168.296875 242.46875 162.585938 240.765625 157.691406 239.300781 C 155.246094 238.574219 153 237.90625 151.015625 237.3125 C 149.042969 236.671875 147.246094 236.34375 145.707031 236.246094 C 142.640625 236.027344 140.613281 236.714844 140.613281 236.714844 C 137.148438 237.886719 133.390625 236.03125 132.21875 232.570312 C 131.046875 229.109375 132.902344 225.355469 136.363281 224.183594 C 139.253906 223.207031 142.351562 224.34375 143.984375 226.757812 C 143.984375 226.757812 145.175781 228.535156 147.742188 230.222656 C 149.03125 231.078125 150.660156 231.902344 152.613281 232.589844 C 154.554688 233.324219 156.738281 234.152344 159.125 235.0625 C 163.898438 236.867188 169.472656 238.972656 175.445312 241.230469 C 181.421875 243.457031 187.804688 245.835938 194.183594 248.210938 C 200.574219 250.546875 206.964844 252.890625 212.957031 255.078125 C 215.953125 256.164062 218.855469 257.210938 221.605469 258.207031 C 224.359375 259.183594 226.964844 260.105469 229.371094 260.957031 C 234.183594 262.65625 238.195312 264.070312 241 265.058594 C 243.816406 266.03125 245.425781 266.585938 245.425781 266.585938 "/><path style=" stroke:none;fill-rule:nonzero;fill:rgb(50.979614%,66.668701%,100%);fill-opacity:1;" d="M 173.796875 238.695312 C 173.796875 232.695312 168.933594 227.835938 162.929688 227.835938 C 156.929688 227.835938 152.066406 232.695312 152.066406 238.695312 C 152.066406 244.691406 156.929688 249.554688 162.929688 249.554688 C 168.933594 249.554688 173.796875 244.691406 173.796875 238.695312 "/><g style="fill:rgb(50.979614%,54.508972%,72.158813%);fill-opacity:1;"><g transform="translate(128.79428, 294.781298)"><path style="stroke:none;" d="M 20.171875 0 L 17.546875 0 L 17.546875 -10.578125 L 5.703125 -10.578125 L 5.703125 0 L 3.09375 0 L 3.09375 -22.484375 L 5.703125 -22.484375 L 5.703125 -12.921875 L 17.546875 -12.921875 L 17.546875 -22.484375 L 20.171875 -22.484375 Z M 20.171875 0 "/></g><g transform="translate(152.034757, 294.781298)"><path style="stroke:none;" d="M 20.078125 -22.484375 L 20.078125 -7.9375 C 20.078125 -5.375 19.300781 -3.359375 17.75 -1.890625 C 16.195312 -0.421875 14.066406 0.3125 11.359375 0.3125 C 8.660156 0.3125 6.566406 -0.425781 5.078125 -1.90625 C 3.597656 -3.382812 2.859375 -5.414062 2.859375 -8 L 2.859375 -22.484375 L 5.46875 -22.484375 L 5.46875 -7.8125 C 5.46875 -5.9375 5.976562 -4.492188 7 -3.484375 C 8.03125 -2.484375 9.539062 -1.984375 11.53125 -1.984375 C 13.425781 -1.984375 14.882812 -2.488281 15.90625 -3.5 C 16.9375 -4.507812 17.453125 -5.957031 17.453125 -7.84375 L 17.453125 -22.484375 Z M 20.078125 -22.484375 "/></g><g transform="translate(174.967617, 294.781298)"><path style="stroke:none;" d="M 20.65625 0 L 17.671875 0 L 5.390625 -18.875 L 5.265625 -18.875 C 5.421875 -16.65625 5.5 -14.625 5.5 -12.78125 L 5.5 0 L 3.09375 0 L 3.09375 -22.484375 L 6.046875 -22.484375 L 18.296875 -3.6875 L 18.421875 -3.6875 C 18.398438 -3.96875 18.351562 -4.859375 18.28125 -6.359375 C 18.21875 -7.859375 18.195312 -8.929688 18.21875 -9.578125 L 18.21875 -22.484375 L 20.65625 -22.484375 Z M 20.65625 0 "/></g><g transform="translate(198.715662, 294.781298)"><path style="stroke:none;" d="M 21.046875 -11.453125 C 21.046875 -7.742188 20.035156 -4.90625 18.015625 -2.9375 C 16.003906 -0.976562 13.109375 0 9.328125 0 L 3.09375 0 L 3.09375 -22.484375 L 9.984375 -22.484375 C 13.484375 -22.484375 16.203125 -21.515625 18.140625 -19.578125 C 20.078125 -17.640625 21.046875 -14.929688 21.046875 -11.453125 Z M 18.265625 -11.359375 C 18.265625 -14.296875 17.53125 -16.503906 16.0625 -17.984375 C 14.59375 -19.472656 12.40625 -20.21875 9.5 -20.21875 L 5.703125 -20.21875 L 5.703125 -2.265625 L 8.890625 -2.265625 C 12.003906 -2.265625 14.34375 -3.03125 15.90625 -4.5625 C 17.476562 -6.09375 18.265625 -8.359375 18.265625 -11.359375 Z M 18.265625 -11.359375 "/></g><g transform="translate(221.679284, 294.781298)"><path style="stroke:none;" d="M 22.609375 -11.28125 C 22.609375 -7.675781 21.695312 -4.84375 19.875 -2.78125 C 18.0625 -0.71875 15.535156 0.3125 12.296875 0.3125 C 8.984375 0.3125 6.425781 -0.695312 4.625 -2.71875 C 2.820312 -4.75 1.921875 -7.613281 1.921875 -11.3125 C 1.921875 -14.96875 2.820312 -17.800781 4.625 -19.8125 C 6.4375 -21.832031 9 -22.84375 12.3125 -22.84375 C 15.550781 -22.84375 18.078125 -21.816406 19.890625 -19.765625 C 21.703125 -17.710938 22.609375 -14.882812 22.609375 -11.28125 Z M 4.6875 -11.28125 C 4.6875 -8.226562 5.332031 -5.914062 6.625 -4.34375 C 7.925781 -2.769531 9.816406 -1.984375 12.296875 -1.984375 C 14.785156 -1.984375 16.664062 -2.765625 17.9375 -4.328125 C 19.207031 -5.898438 19.84375 -8.21875 19.84375 -11.28125 C 19.84375 -14.300781 19.207031 -16.59375 17.9375 -18.15625 C 16.675781 -19.71875 14.800781 -20.5 12.3125 -20.5 C 9.820312 -20.5 7.925781 -19.710938 6.625 -18.140625 C 5.332031 -16.566406 4.6875 -14.28125 4.6875 -11.28125 Z M 4.6875 -11.28125 "/></g></g><g style="fill:rgb(50.979614%,54.508972%,72.158813%);fill-opacity:1;"><g transform="translate(83.313814, 319.678954)"><path style="stroke:none;" d="M 9.546875 0 L 0.71875 0 L 0.71875 -1.171875 L 7.546875 -11.5 L 0.9375 -11.5 L 0.9375 -12.84375 L 9.359375 -12.84375 L 9.359375 -11.6875 L 2.546875 -1.359375 L 9.546875 -1.359375 Z M 9.546875 0 "/></g><g transform="translate(93.588228, 319.678954)"><path style="stroke:none;" d="M 8.9375 0 L 1.765625 0 L 1.765625 -12.84375 L 8.9375 -12.84375 L 8.9375 -11.515625 L 3.265625 -11.515625 L 3.265625 -7.390625 L 8.59375 -7.390625 L 8.59375 -6.0625 L 3.265625 -6.0625 L 3.265625 -1.34375 L 8.9375 -1.34375 Z M 8.9375 0 "/></g><g transform="translate(103.598969, 319.678954)"><path style="stroke:none;" d="M 3.265625 -5.34375 L 3.265625 0 L 1.765625 0 L 1.765625 -12.84375 L 5.296875 -12.84375 C 6.867188 -12.84375 8.03125 -12.539062 8.78125 -11.9375 C 9.539062 -11.34375 9.921875 -10.4375 9.921875 -9.21875 C 9.921875 -7.519531 9.054688 -6.375 7.328125 -5.78125 L 10.8125 0 L 9.046875 0 L 5.9375 -5.34375 Z M 3.265625 -6.625 L 5.3125 -6.625 C 6.363281 -6.625 7.132812 -6.832031 7.625 -7.25 C 8.125 -7.675781 8.375 -8.304688 8.375 -9.140625 C 8.375 -9.992188 8.117188 -10.609375 7.609375 -10.984375 C 7.109375 -11.359375 6.304688 -11.546875 5.203125 -11.546875 L 3.265625 -11.546875 Z M 3.265625 -6.625 "/></g><g transform="translate(114.725922, 319.678954)"><path style="stroke:none;" d="M 12.921875 -6.4375 C 12.921875 -4.382812 12.398438 -2.769531 11.359375 -1.59375 C 10.316406 -0.414062 8.867188 0.171875 7.015625 0.171875 C 5.128906 0.171875 3.671875 -0.40625 2.640625 -1.5625 C 1.609375 -2.71875 1.09375 -4.347656 1.09375 -6.453125 C 1.09375 -8.546875 1.609375 -10.164062 2.640625 -11.3125 C 3.671875 -12.46875 5.140625 -13.046875 7.046875 -13.046875 C 8.890625 -13.046875 10.328125 -12.457031 11.359375 -11.28125 C 12.398438 -10.113281 12.921875 -8.5 12.921875 -6.4375 Z M 2.6875 -6.4375 C 2.6875 -4.695312 3.054688 -3.378906 3.796875 -2.484375 C 4.535156 -1.585938 5.609375 -1.140625 7.015625 -1.140625 C 8.441406 -1.140625 9.519531 -1.585938 10.25 -2.484375 C 10.976562 -3.378906 11.34375 -4.695312 11.34375 -6.4375 C 11.34375 -8.164062 10.976562 -9.476562 10.25 -10.375 C 9.53125 -11.269531 8.460938 -11.71875 7.046875 -11.71875 C 5.617188 -11.71875 4.535156 -11.265625 3.796875 -10.359375 C 3.054688 -9.460938 2.6875 -8.15625 2.6875 -6.4375 Z M 2.6875 -6.4375 "/></g><g transform="translate(128.744475, 319.678954)"><path style="stroke:none;" d=""/></g><g transform="translate(133.420256, 319.678954)"><path style="stroke:none;" d="M 5.71875 0 L 4.234375 0 L 4.234375 -11.515625 L 0.15625 -11.515625 L 0.15625 -12.84375 L 9.796875 -12.84375 L 9.796875 -11.515625 L 5.71875 -11.515625 Z M 5.71875 0 "/></g><g transform="translate(143.378264, 319.678954)"><path style="stroke:none;" d="M 12.921875 -6.4375 C 12.921875 -4.382812 12.398438 -2.769531 11.359375 -1.59375 C 10.316406 -0.414062 8.867188 0.171875 7.015625 0.171875 C 5.128906 0.171875 3.671875 -0.40625 2.640625 -1.5625 C 1.609375 -2.71875 1.09375 -4.347656 1.09375 -6.453125 C 1.09375 -8.546875 1.609375 -10.164062 2.640625 -11.3125 C 3.671875 -12.46875 5.140625 -13.046875 7.046875 -13.046875 C 8.890625 -13.046875 10.328125 -12.457031 11.359375 -11.28125 C 12.398438 -10.113281 12.921875 -8.5 12.921875 -6.4375 Z M 2.6875 -6.4375 C 2.6875 -4.695312 3.054688 -3.378906 3.796875 -2.484375 C 4.535156 -1.585938 5.609375 -1.140625 7.015625 -1.140625 C 8.441406 -1.140625 9.519531 -1.585938 10.25 -2.484375 C 10.976562 -3.378906 11.34375 -4.695312 11.34375 -6.4375 C 11.34375 -8.164062 10.976562 -9.476562 10.25 -10.375 C 9.53125 -11.269531 8.460938 -11.71875 7.046875 -11.71875 C 5.617188 -11.71875 4.535156 -11.265625 3.796875 -10.359375 C 3.054688 -9.460938 2.6875 -8.15625 2.6875 -6.4375 Z M 2.6875 -6.4375 "/></g><g transform="translate(157.396817, 319.678954)"><path style="stroke:none;" d=""/></g><g transform="translate(162.072598, 319.678954)"><path style="stroke:none;" d="M 12.921875 -6.4375 C 12.921875 -4.382812 12.398438 -2.769531 11.359375 -1.59375 C 10.316406 -0.414062 8.867188 0.171875 7.015625 0.171875 C 5.128906 0.171875 3.671875 -0.40625 2.640625 -1.5625 C 1.609375 -2.71875 1.09375 -4.347656 1.09375 -6.453125 C 1.09375 -8.546875 1.609375 -10.164062 2.640625 -11.3125 C 3.671875 -12.46875 5.140625 -13.046875 7.046875 -13.046875 C 8.890625 -13.046875 10.328125 -12.457031 11.359375 -11.28125 C 12.398438 -10.113281 12.921875 -8.5 12.921875 -6.4375 Z M 2.6875 -6.4375 C 2.6875 -4.695312 3.054688 -3.378906 3.796875 -2.484375 C 4.535156 -1.585938 5.609375 -1.140625 7.015625 -1.140625 C 8.441406 -1.140625 9.519531 -1.585938 10.25 -2.484375 C 10.976562 -3.378906 11.34375 -4.695312 11.34375 -6.4375 C 11.34375 -8.164062 10.976562 -9.476562 10.25 -10.375 C 9.53125 -11.269531 8.460938 -11.71875 7.046875 -11.71875 C 5.617188 -11.71875 4.535156 -11.265625 3.796875 -10.359375 C 3.054688 -9.460938 2.6875 -8.15625 2.6875 -6.4375 Z M 2.6875 -6.4375 "/></g><g transform="translate(176.091152, 319.678954)"><path style="stroke:none;" d="M 11.796875 0 L 10.09375 0 L 3.078125 -10.78125 L 3 -10.78125 C 3.09375 -9.519531 3.140625 -8.359375 3.140625 -7.296875 L 3.140625 0 L 1.765625 0 L 1.765625 -12.84375 L 3.453125 -12.84375 L 10.453125 -2.109375 L 10.53125 -2.109375 C 10.519531 -2.265625 10.492188 -2.769531 10.453125 -3.625 C 10.410156 -4.488281 10.394531 -5.101562 10.40625 -5.46875 L 10.40625 -12.84375 L 11.796875 -12.84375 Z M 11.796875 0 "/></g><g transform="translate(189.661464, 319.678954)"><path style="stroke:none;" d="M 8.9375 0 L 1.765625 0 L 1.765625 -12.84375 L 8.9375 -12.84375 L 8.9375 -11.515625 L 3.265625 -11.515625 L 3.265625 -7.390625 L 8.59375 -7.390625 L 8.59375 -6.0625 L 3.265625 -6.0625 L 3.265625 -1.34375 L 8.9375 -1.34375 Z M 8.9375 0 "/></g><g transform="translate(199.672205, 319.678954)"><path style="stroke:none;" d=""/></g><g transform="translate(204.347986, 319.678954)"><path style="stroke:none;" d="M 11.515625 0 L 10.03125 0 L 10.03125 -6.046875 L 3.265625 -6.046875 L 3.265625 0 L 1.765625 0 L 1.765625 -12.84375 L 3.265625 -12.84375 L 3.265625 -7.390625 L 10.03125 -7.390625 L 10.03125 -12.84375 L 11.515625 -12.84375 Z M 11.515625 0 "/></g><g transform="translate(217.628259, 319.678954)"><path style="stroke:none;" d="M 11.46875 -12.84375 L 11.46875 -4.53125 C 11.46875 -3.070312 11.023438 -1.921875 10.140625 -1.078125 C 9.253906 -0.242188 8.039062 0.171875 6.5 0.171875 C 4.945312 0.171875 3.75 -0.25 2.90625 -1.09375 C 2.0625 -1.9375 1.640625 -3.097656 1.640625 -4.578125 L 1.640625 -12.84375 L 3.125 -12.84375 L 3.125 -4.46875 C 3.125 -3.394531 3.414062 -2.570312 4 -2 C 4.59375 -1.425781 5.457031 -1.140625 6.59375 -1.140625 C 7.675781 -1.140625 8.507812 -1.425781 9.09375 -2 C 9.675781 -2.570312 9.96875 -3.398438 9.96875 -4.484375 L 9.96875 -12.84375 Z M 11.46875 -12.84375 "/></g><g transform="translate(230.73275, 319.678954)"><path style="stroke:none;" d="M 11.796875 0 L 10.09375 0 L 3.078125 -10.78125 L 3 -10.78125 C 3.09375 -9.519531 3.140625 -8.359375 3.140625 -7.296875 L 3.140625 0 L 1.765625 0 L 1.765625 -12.84375 L 3.453125 -12.84375 L 10.453125 -2.109375 L 10.53125 -2.109375 C 10.519531 -2.265625 10.492188 -2.769531 10.453125 -3.625 C 10.410156 -4.488281 10.394531 -5.101562 10.40625 -5.46875 L 10.40625 -12.84375 L 11.796875 -12.84375 Z M 11.796875 0 "/></g><g transform="translate(244.303062, 319.678954)"><path style="stroke:none;" d="M 12.03125 -6.546875 C 12.03125 -4.421875 11.453125 -2.796875 10.296875 -1.671875 C 9.140625 -0.554688 7.484375 0 5.328125 0 L 1.765625 0 L 1.765625 -12.84375 L 5.703125 -12.84375 C 7.703125 -12.84375 9.253906 -12.289062 10.359375 -11.1875 C 11.472656 -10.082031 12.03125 -8.535156 12.03125 -6.546875 Z M 10.4375 -6.5 C 10.4375 -8.175781 10.015625 -9.4375 9.171875 -10.28125 C 8.335938 -11.132812 7.09375 -11.5625 5.4375 -11.5625 L 3.265625 -11.5625 L 3.265625 -1.296875 L 5.078125 -1.296875 C 6.859375 -1.296875 8.195312 -1.734375 9.09375 -2.609375 C 9.988281 -3.484375 10.4375 -4.78125 10.4375 -6.5 Z M 10.4375 -6.5 "/></g><g transform="translate(257.425131, 319.678954)"><path style="stroke:none;" d="M 3.265625 -5.34375 L 3.265625 0 L 1.765625 0 L 1.765625 -12.84375 L 5.296875 -12.84375 C 6.867188 -12.84375 8.03125 -12.539062 8.78125 -11.9375 C 9.539062 -11.34375 9.921875 -10.4375 9.921875 -9.21875 C 9.921875 -7.519531 9.054688 -6.375 7.328125 -5.78125 L 10.8125 0 L 9.046875 0 L 5.9375 -5.34375 Z M 3.265625 -6.625 L 5.3125 -6.625 C 6.363281 -6.625 7.132812 -6.832031 7.625 -7.25 C 8.125 -7.675781 8.375 -8.304688 8.375 -9.140625 C 8.375 -9.992188 8.117188 -10.609375 7.609375 -10.984375 C 7.109375 -11.359375 6.304688 -11.546875 5.203125 -11.546875 L 3.265625 -11.546875 Z M 3.265625 -6.625 "/></g><g transform="translate(268.552083, 319.678954)"><path style="stroke:none;" d="M 8.9375 0 L 1.765625 0 L 1.765625 -12.84375 L 8.9375 -12.84375 L 8.9375 -11.515625 L 3.265625 -11.515625 L 3.265625 -7.390625 L 8.59375 -7.390625 L 8.59375 -6.0625 L 3.265625 -6.0625 L 3.265625 -1.34375 L 8.9375 -1.34375 Z M 8.9375 0 "/></g><g transform="translate(278.562825, 319.678954)"><path style="stroke:none;" d="M 12.03125 -6.546875 C 12.03125 -4.421875 11.453125 -2.796875 10.296875 -1.671875 C 9.140625 -0.554688 7.484375 0 5.328125 0 L 1.765625 0 L 1.765625 -12.84375 L 5.703125 -12.84375 C 7.703125 -12.84375 9.253906 -12.289062 10.359375 -11.1875 C 11.472656 -10.082031 12.03125 -8.535156 12.03125 -6.546875 Z M 10.4375 -6.5 C 10.4375 -8.175781 10.015625 -9.4375 9.171875 -10.28125 C 8.335938 -11.132812 7.09375 -11.5625 5.4375 -11.5625 L 3.265625 -11.5625 L 3.265625 -1.296875 L 5.078125 -1.296875 C 6.859375 -1.296875 8.195312 -1.734375 9.09375 -2.609375 C 9.988281 -3.484375 10.4375 -4.78125 10.4375 -6.5 Z M 10.4375 -6.5 "/></g></g></g></svg>